<?xml version="1.0" encoding="UTF-8" standalone="no"?>
<!-- Created with Inkscape (http://www.inkscape.org/) -->

<svg
   xmlns:dc="http://purl.org/dc/elements/1.1/"
   xmlns:cc="http://creativecommons.org/ns#"
   xmlns:rdf="http://www.w3.org/1999/02/22-rdf-syntax-ns#"
   xmlns:svg="http://www.w3.org/2000/svg"
   xmlns="http://www.w3.org/2000/svg"
   xmlns:sodipodi="http://sodipodi.sourceforge.net/DTD/sodipodi-0.dtd"
   xmlns:inkscape="http://www.inkscape.org/namespaces/inkscape"
   width="150mm"
   height="75mm"
   viewBox="0 0 150 75"
   version="1.1"
   id="svg8"
   inkscape:version="0.92.4 5da689c313, 2019-01-14"
   sodipodi:docname="main_above_o.svg"
   inkscape:export-filename="/home/allen/src/aa-dbms/client/src/Images/svg/main.jpg.png"
   inkscape:export-xdpi="128.01601"
   inkscape:export-ydpi="128.01601">
  <defs
     id="defs2" />
  <sodipodi:namedview
     id="base"
     pagecolor="#ffffff"
     bordercolor="#666666"
     borderopacity="1.0"
     inkscape:pageopacity="0.0"
     inkscape:pageshadow="2"
     inkscape:zoom="1.979899"
     inkscape:cx="263.53268"
     inkscape:cy="125.88639"
     inkscape:document-units="mm"
     inkscape:current-layer="layer1"
     showgrid="false"
     inkscape:window-width="1920"
     inkscape:window-height="1000"
     inkscape:window-x="0"
     inkscape:window-y="31"
     inkscape:window-maximized="1" />
  <metadata
     id="metadata5">
    <rdf:RDF>
      <cc:Work
         rdf:about="">
        <dc:format>image/svg+xml</dc:format>
        <dc:type
           rdf:resource="http://purl.org/dc/dcmitype/StillImage" />
        <dc:title></dc:title>
      </cc:Work>
    </rdf:RDF>
  </metadata>
  <g
     inkscape:label="Layer 1"
     inkscape:groupmode="layer"
     id="layer1"
     transform="translate(0,-222)">
    <text
       xml:space="preserve"
       style="font-style:normal;font-variant:normal;font-weight:normal;font-stretch:normal;font-size:14.11111111px;line-height:1.25;font-family:'Liberation Sans';-inkscape-font-specification:'Liberation Sans';letter-spacing:0px;word-spacing:0px;fill:#000000;fill-opacity:1;stroke:none;stroke-width:0.26458332;"
       x="29.399649"
       y="268.66943"
       id="text4678"><tspan
         sodipodi:role="line"
         id="tspan4676"
         x="29.399649"
         y="278.20242"
         style="stroke-width:0.26458332;font-size:14.11111111px;" /></text>
    <text
       xml:space="preserve"
       style="font-style:normal;font-variant:normal;font-weight:normal;font-stretch:normal;font-size:10.58333302px;line-height:1.25;font-family:'Helvetica Neue';-inkscape-font-specification:'Helvetica Neue';letter-spacing:0px;word-spacing:0px;fill:#000000;fill-opacity:1;stroke:none;stroke-width:0.26458332;"
       x="35.814117"
       y="272.94574"
       id="text4682"><tspan
         sodipodi:role="line"
         id="tspan4680"
         x="35.814117"
         y="282.30951"
         style="font-style:normal;font-variant:normal;font-weight:normal;font-stretch:normal;font-family:'Helvetica Neue';-inkscape-font-specification:'Helvetica Neue';stroke-width:0.26458332;" /></text>
    <text
       xml:space="preserve"
       style="font-style:normal;font-variant:normal;font-weight:normal;font-stretch:normal;font-size:14.29316807px;line-height:1.25;font-family:'Liberation Sans';-inkscape-font-specification:'Liberation Sans';letter-spacing:0px;word-spacing:0px;fill:#000000;fill-opacity:1;stroke:none;stroke-width:0.35732919"
       x="11.542424"
       y="282.54037"
       id="text4686"><tspan
         sodipodi:role="line"
         id="tspan4684"
         x="11.542424"
         y="282.54037"
         style="font-size:26.68058205px;stroke-width:0.35732919">EMPORIO</tspan></text>
    <g
       id="g166"
       transform="matrix(0.18834824,0,0,0.18834824,64.719259,233.69367)"
       style="fill:#b200ff;fill-opacity:1">
      <g
         id="g110"
         style="fill:#b200ff;fill-opacity:1">
        <path
           id="path108"
           d="m 157.824,45.67 c -1.456,-1.089 -3.449,-1.073 -4.884,0.029 L 110.98,77.73 83.426,15.501 c -1.309,-2.932 -6.104,-2.932 -7.412,0 L 48.149,78.445 6.555,45.731 C 5.113,44.607 3.103,44.576 1.64,45.66 0.171,46.736 -0.385,48.679 0.274,50.374 l 28.901,74.672 c 0.599,1.562 2.104,2.584 3.773,2.584 h 93.54 c 1.677,0 3.175,-1.018 3.771,-2.584 l 28.903,-74.672 c 0.66,-1.689 0.106,-3.617 -1.338,-4.704 z M 79.724,27.145 104.356,82.791 78.632,102.424 54.728,83.629 Z M 44.769,86.091 33.04,112.585 13.163,61.23 Z m -5.946,33.445 12.524,-28.276 20.637,16.231 -15.783,12.045 z m 30.728,0 9.007,-6.866 8.738,6.866 z m 30.56,-0.233 -14.908,-11.723 22.513,-17.191 12.904,29.136 h -20.245 c -0.074,-0.068 -0.169,-0.148 -0.264,-0.222 z M 126.41,112.585 114.355,85.337 146.433,60.85 Z m 3.713,29.499 c 0,2.236 -1.814,4.051 -4.051,4.051 H 33.371 c -2.236,0 -4.05,-1.814 -4.05,-4.051 0,-2.235 1.814,-4.05 4.05,-4.05 h 92.701 c 2.241,0.001 4.051,1.815 4.051,4.05 z"
           inkscape:connector-curvature="0"
           style="fill:#b200ff;fill-opacity:1" />
      </g>
      <g
         id="g112"
         style="fill:#b200ff;fill-opacity:1" />
      <g
         id="g114"
         style="fill:#b200ff;fill-opacity:1" />
      <g
         id="g116"
         style="fill:#b200ff;fill-opacity:1" />
      <g
         id="g118"
         style="fill:#b200ff;fill-opacity:1" />
      <g
         id="g120"
         style="fill:#b200ff;fill-opacity:1" />
      <g
         id="g122"
         style="fill:#b200ff;fill-opacity:1" />
      <g
         id="g124"
         style="fill:#b200ff;fill-opacity:1" />
      <g
         id="g126"
         style="fill:#b200ff;fill-opacity:1" />
      <g
         id="g128"
         style="fill:#b200ff;fill-opacity:1" />
      <g
         id="g130"
         style="fill:#b200ff;fill-opacity:1" />
      <g
         id="g132"
         style="fill:#b200ff;fill-opacity:1" />
      <g
         id="g134"
         style="fill:#b200ff;fill-opacity:1" />
      <g
         id="g136"
         style="fill:#b200ff;fill-opacity:1" />
      <g
         id="g138"
         style="fill:#b200ff;fill-opacity:1" />
      <g
         id="g140"
         style="fill:#b200ff;fill-opacity:1" />
    </g>
  </g>
</svg>
